# xmcd
#
# Track frame offsets:
#	150
#	12387
#	31426
#	43174
#	54737
#	72460
#	86672
#	101548
#	114923
#	127168
#
# Disc length: 1844
#
# Revision: 3
# Processed by: cddbd v1.5.1PL0 Copyright (c) Steve Scherf et al.
# Submitted via: EZCDDA 4.3.2
# Normalized: r2:TDELIM( - )
#
DISCID=8c07320a
DTITLE=Various Artist - Country's Greatest (Volume 1)
DYEAR=1900
DGENRE=
TTITLE0=Merle Haggard - Okie From Muskogee (1969)
TTITLE1=Alabama - I wanna Be With You Tonight (1977)
TTITLE2=Donna Fargo - The Happiest Girl in the Whole USA (1972)
TTITLE3=Johnny Paycheck - Take This Job and Shove It (1977)
TTITLE4=Deborah Allen - Baby I Lied (1983)
TTITLE5=T. Graham Brown - Darlene (1988)
TTITLE6=Lee Greenwood - Dixie Road (1985)
TTITLE7=Mel McDaniel - Baby's Got Her Blue Jeans On (1984)
TTITLE8=Charlie Rich - Behind Closed Doors (1973)
TTITLE9=Conway Twitty - Hello Darlin' (1970)
EXTD=
EXTT0=
EXTT1=
EXTT2=
EXTT3=
EXTT4=
EXTT5=
EXTT6=
EXTT7=
EXTT8=
EXTT9=
PLAYORDER=
